# xmcd CD database file
#
# Track frame offsets:
#	150
#	25092
#	43439
#	67206
#	90405
#	111661
#	129136
#	159134
#	171531
#	195193
#	215112
#	237778
#	259689
#
# Disc length: 3687 seconds
#
# Revision: 0
# Processed by: cddbd v1.5.2PL0 Copyright (c) Steve Scherf et al.
# Submitted via: CDex 1.70beta2
#
DISCID=b50e650d
DTITLE=Dave Kellan Band - Truth of the Matter
DYEAR=2003
DGENRE=Jazz
TTITLE0=Truth of the Matter
TTITLE1=Tranquility
TTITLE2=Golden Rule
TTITLE3=Sun Shinin'
TTITLE4=Rainy Day
TTITLE5=Them Apples
TTITLE6=Silky Gravy
TTITLE7=High Tides
TTITLE8=Talk About the Weather
TTITLE9=You Are
TTITLE10=I Still Care
TTITLE11=Around You
TTITLE12=Pent Up
EXTD=YEAR: 2003
EXTT0=
EXTT1=
EXTT2=
EXTT3=
EXTT4=
EXTT5=
EXTT6=
EXTT7=
EXTT8=
EXTT9=
EXTT10=
EXTT11=
EXTT12=
PLAYORDER=
